<svg width="32" height="32" viewBox="0 0 32 32" fill="none" xmlns="http://www.w3.org/2000/svg">
  <defs>
    <linearGradient id="logoGradient" x1="0%" y1="0%" x2="100%" y2="100%">
      <stop offset="0%" style="stop-color:#3b82f6;stop-opacity:1" />
      <stop offset="100%" style="stop-color:#9333ea;stop-opacity:1" />
    </linearGradient>
  </defs>
  <rect width="32" height="32" rx="7" fill="url(#logoGradient)"/>
  <path d="M11 7c-1.1 0-2 .9-2 2v14c0 1.1.9 2 2 2h10c1.1 0 2-.9 2-2V9c0-1.1-.9-2-2-2h-10zm0 2h10v14H11V9zm5 12c.6 0 1 .4 1 1s-.4 1-1 1-1-.4-1-1 .4-1 1-1z" fill="white" fill-opacity="0.95"/>
  <circle cx="16" cy="11" r="1.5" fill="white" fill-opacity="0.8"/>
</svg>

